<?xml version="1.0" encoding="UTF-8" ?>
<!DOCTYPE svg PUBLIC "-//W3C//DTD SVG 1.1//EN" "http://www.w3.org/Graphics/SVG/1.1/DTD/svg11.dtd">
<svg width="677pt" height="369pt" viewBox="0 0 677 369" version="1.1" xmlns="http://www.w3.org/2000/svg">
<g id="#1e5a36ff">
<path fill="#1e5a36" opacity="1.00" d=" M 301.54 68.77 C 310.95 64.89 320.72 61.38 330.97 60.66 C 344.59 59.20 358.43 61.66 371.06 66.86 C 378.60 69.20 384.74 74.33 391.03 78.89 C 393.97 80.93 396.22 83.74 398.64 86.33 C 402.44 90.66 406.44 94.95 408.85 100.25 C 412.51 106.49 415.43 113.15 417.42 120.09 C 420.18 130.18 420.26 140.77 419.51 151.13 C 418.71 160.63 415.61 169.81 411.18 178.22 C 408.62 182.32 406.86 186.95 403.56 190.56 C 400.10 194.43 396.85 198.52 392.98 202.00 C 386.97 206.50 381.17 211.40 374.31 214.60 C 372.35 213.07 370.30 211.67 368.18 210.39 C 384.56 203.14 398.11 190.21 406.39 174.36 C 410.15 164.99 413.51 155.24 413.85 145.05 C 414.56 131.97 411.16 119.00 405.84 107.14 C 400.07 97.03 392.59 87.75 383.16 80.83 C 374.54 74.98 365.03 70.34 354.88 67.86 C 348.64 66.81 342.30 66.69 335.98 66.77 C 332.46 67.14 329.51 64.12 325.97 64.91 C 321.88 65.58 317.90 66.76 313.95 67.94 C 310.63 68.94 309.12 72.55 305.99 73.90 C 296.70 78.36 288.00 84.40 281.56 92.54 C 276.54 98.77 271.43 105.23 268.99 112.97 C 262.35 129.06 261.18 147.57 266.95 164.11 C 268.38 167.95 269.55 171.92 271.38 175.61 C 276.21 183.81 281.92 191.59 289.15 197.86 C 294.97 203.22 302.26 206.46 308.97 210.52 C 307.04 211.89 305.14 213.30 303.31 214.80 C 299.22 212.65 295.15 210.43 291.58 207.48 C 288.10 204.62 284.07 202.38 281.15 198.89 C 278.02 195.31 274.64 191.94 271.79 188.13 C 265.19 177.71 259.74 166.30 257.95 153.99 C 255.81 137.52 257.72 120.22 265.60 105.41 C 268.27 100.86 270.17 95.78 273.81 91.86 C 278.06 87.13 281.90 81.87 287.22 78.25 C 291.90 74.97 296.33 71.22 301.54 68.77 Z" />
</g>
<g id="#24613aff">
<path fill="#24613a" opacity="1.00" d=" M 318.96 70.03 C 322.48 69.08 326.11 67.53 329.82 68.27 C 331.85 69.01 332.08 71.36 332.70 73.12 C 330.82 73.65 328.95 74.18 327.07 74.69 C 327.15 76.03 327.23 77.36 327.32 78.69 C 324.71 79.13 322.11 79.61 319.47 79.74 C 319.12 79.07 318.43 77.75 318.08 77.08 C 316.58 77.67 315.08 78.27 313.59 78.86 C 312.43 77.52 311.56 75.82 312.20 74.02 C 313.37 71.38 316.53 70.91 318.96 70.03 Z" />
</g>
<g id="#b9b9b7ff">
<path fill="#b9b9b7" opacity="1.00" d=" M 327.32 78.69 C 337.07 76.65 347.19 77.84 356.66 80.63 C 371.60 86.23 384.15 98.19 389.84 113.16 C 390.15 114.14 390.46 115.13 390.77 116.12 C 391.05 116.61 391.60 117.60 391.88 118.10 C 393.42 118.51 395.10 118.73 396.29 119.92 C 396.97 121.23 396.45 122.73 396.41 124.12 C 387.63 127.68 378.20 128.97 369.15 131.64 C 357.36 134.88 345.90 139.34 333.90 141.83 C 317.19 146.48 300.64 151.74 283.69 155.47 C 282.01 154.56 280.96 153.06 281.45 151.09 C 282.21 149.84 283.58 148.55 283.04 146.90 C 282.64 141.23 281.04 135.59 281.86 129.89 C 282.47 125.75 282.42 121.51 283.54 117.46 C 286.23 108.53 291.57 100.60 297.85 93.81 C 304.34 88.46 311.13 82.63 319.56 80.81 C 319.54 80.54 319.49 80.01 319.47 79.74 C 322.11 79.61 324.71 79.13 327.32 78.69 M 308.17 95.07 C 310.02 98.26 313.57 96.00 315.64 94.36 C 317.09 93.38 316.94 91.19 315.29 90.49 C 312.47 91.17 309.91 92.73 308.17 95.07 M 298.64 103.61 C 295.19 106.90 293.72 111.51 291.89 115.77 C 289.13 119.88 289.31 125.08 290.78 129.63 L 289.73 129.78 C 289.28 131.95 289.26 134.20 291.01 135.82 C 293.59 134.53 293.54 131.70 292.50 129.37 C 292.60 128.88 292.80 127.89 292.90 127.40 C 294.16 124.56 294.51 121.46 295.49 118.53 C 298.03 112.73 300.89 106.86 305.60 102.49 C 307.16 101.20 307.81 99.30 307.64 97.29 C 303.38 96.96 301.35 101.14 298.64 103.61 M 340.26 107.77 C 341.13 108.85 342.48 108.40 343.65 108.31 C 344.12 106.49 344.20 104.02 346.48 103.55 C 349.51 102.01 352.28 106.81 354.95 104.93 C 355.75 102.49 352.54 100.42 350.55 99.46 C 345.33 96.99 339.76 102.61 340.26 107.77 M 309.65 112.64 C 308.89 114.36 308.20 117.56 311.07 117.38 C 313.83 116.35 313.36 111.53 316.96 111.60 C 319.39 112.35 321.51 113.98 324.14 114.12 C 324.30 110.55 321.09 108.19 317.94 107.46 C 314.40 106.97 310.93 109.40 309.65 112.64 M 333.97 122.02 C 329.19 123.48 324.42 121.50 319.70 120.81 C 320.01 122.27 319.73 124.01 320.70 125.27 C 326.96 133.43 342.23 134.06 347.00 124.00 C 348.26 120.90 351.14 115.87 347.28 113.54 C 343.92 117.75 339.32 120.99 333.97 122.02 Z" />
</g>
<g id="#214f35ff">
<path fill="#214f35" opacity="1.00" d=" M 340.26 107.77 C 339.76 102.61 345.33 96.99 350.55 99.46 C 352.54 100.42 355.75 102.49 354.95 104.93 C 352.28 106.81 349.51 102.01 346.48 103.55 C 344.20 104.02 344.12 106.49 343.65 108.31 C 342.48 108.40 341.13 108.85 340.26 107.77 Z" />
</g>
<g id="#204d33ff">
<path fill="#204d33" opacity="1.00" d=" M 309.65 112.64 C 310.93 109.40 314.40 106.97 317.94 107.46 C 321.09 108.19 324.30 110.55 324.14 114.12 C 321.51 113.98 319.39 112.35 316.96 111.60 C 313.36 111.53 313.83 116.35 311.07 117.38 C 308.20 117.56 308.89 114.36 309.65 112.64 Z" />
</g>
<g id="#235635ff">
<path fill="#235635" opacity="1.00" d=" M 333.97 122.02 C 339.32 120.99 343.92 117.75 347.28 113.54 C 351.14 115.87 348.26 120.90 347.00 124.00 C 342.23 134.06 326.96 133.43 320.70 125.27 C 319.73 124.01 320.01 122.27 319.70 120.81 C 324.42 121.50 329.19 123.48 333.97 122.02 M 329.78 128.79 C 333.14 129.28 336.87 129.84 339.92 127.92 C 341.22 127.02 343.27 126.13 342.87 124.21 C 338.12 123.81 332.99 125.07 329.78 128.79 Z" />
</g>
<g id="#747372ae">
<path fill="#747372" opacity="0.68" d=" M 290.78 129.63 C 289.31 125.08 289.13 119.88 291.89 115.77 C 291.05 118.56 290.29 121.43 290.19 124.36 C 289.97 125.99 291.98 126.47 292.90 127.40 C 292.80 127.89 292.60 128.88 292.50 129.37 C 292.07 129.43 291.21 129.56 290.78 129.63 Z" />
</g>
<g id="#62a062ff">
<path fill="#62a062" opacity="1.00" d=" M 329.78 128.79 C 332.99 125.07 338.12 123.81 342.87 124.21 C 343.27 126.13 341.22 127.02 339.92 127.92 C 336.87 129.84 333.14 129.28 329.78 128.79 Z" />
</g>
<g id="#1a4c32ff">
<path fill="#1a4c32" opacity="1.00" d=" M 321.79 148.69 C 327.60 147.60 333.09 145.25 338.91 144.24 C 352.30 144.04 365.72 144.97 378.98 146.89 C 387.26 148.29 395.73 149.77 403.20 153.82 C 406.31 155.31 406.91 160.04 404.17 162.18 C 401.06 164.82 396.92 166.65 392.85 166.68 C 391.16 165.97 389.51 165.17 387.81 164.49 C 392.84 163.19 398.41 162.17 402.03 158.08 C 396.71 153.54 389.53 153.07 382.96 151.86 C 369.80 149.33 356.38 148.63 343.00 148.43 C 335.92 148.30 328.86 149.04 321.79 148.69 Z" />
</g>
<g id="#1c5e36ff">
<path fill="#1c5e36" opacity="1.00" d=" M 307.15 153.51 C 330.05 151.22 353.25 151.08 376.08 154.22 C 378.94 154.81 382.39 155.24 384.08 157.96 C 381.61 161.40 376.90 161.60 373.12 162.55 C 354.64 165.32 335.80 165.55 317.19 164.07 C 317.31 163.07 317.43 162.08 317.55 161.09 C 313.05 160.88 308.54 161.11 304.19 162.35 C 301.13 161.99 298.09 161.09 295.34 159.70 C 293.96 159.27 294.34 157.66 294.12 156.59 C 298.39 155.29 302.71 154.09 307.15 153.51 Z" />
</g>
<g id="#1f5635ff">
<path fill="#1f5635" opacity="1.00" d=" M 272.12 156.21 C 273.19 154.09 275.63 153.30 277.46 152.00 C 278.02 153.02 278.58 154.03 279.15 155.05 C 277.94 156.28 276.73 157.52 275.56 158.79 C 286.73 166.35 300.83 165.66 313.65 167.44 C 307.97 170.34 301.18 167.33 295.76 171.07 C 296.11 171.40 296.82 172.05 297.18 172.38 C 293.54 171.02 290.53 168.28 286.68 167.48 C 282.05 166.49 277.19 165.48 273.43 162.43 C 271.76 160.94 270.64 158.21 272.12 156.21 Z" />
</g>
<g id="#184b2cff">
<path fill="#184b2c" opacity="1.00" d=" M 304.19 162.35 C 308.54 161.11 313.05 160.88 317.55 161.09 C 317.43 162.08 317.31 163.07 317.19 164.07 C 312.83 163.75 308.45 163.41 304.19 162.35 Z" />
</g>
<g id="#1e5f36ff">
<path fill="#1e5f36" opacity="1.00" d=" M 379.13 165.98 C 382.04 165.59 384.88 164.76 387.81 164.49 C 389.51 165.17 391.16 165.97 392.85 166.68 C 386.99 167.91 382.61 172.40 376.82 173.80 C 368.06 176.19 359.09 178.19 349.97 178.28 C 332.26 178.90 313.92 178.84 297.18 172.38 C 296.82 172.05 296.11 171.40 295.76 171.07 C 301.18 167.33 307.97 170.34 313.65 167.44 C 316.39 166.96 319.20 167.61 321.97 167.68 C 341.04 168.44 360.15 167.84 379.13 165.98 Z" />
</g>
<g id="#24643aff">
<path fill="#24643a" opacity="1.00" d=" M 365.65 181.66 C 369.56 180.09 373.52 177.55 377.92 178.51 C 373.13 181.40 368.05 183.74 363.05 186.20 C 361.77 186.62 361.11 187.73 360.76 188.96 C 367.13 187.10 372.64 183.19 378.89 180.99 C 378.85 181.60 378.78 182.83 378.74 183.44 C 373.48 185.93 368.44 188.84 363.16 191.25 C 363.01 191.70 362.71 192.61 362.56 193.06 C 369.21 190.96 375.03 186.68 381.90 185.33 C 380.06 189.29 375.11 189.68 371.65 191.65 C 369.22 193.17 365.75 194.03 364.76 197.03 C 371.09 194.97 376.41 190.43 383.11 189.35 C 381.75 192.60 378.06 193.51 375.36 195.33 C 370.93 197.54 367.23 201.61 362.08 202.08 C 358.65 202.57 355.77 198.50 352.45 200.48 C 345.53 203.14 339.34 207.25 332.87 210.81 C 328.24 214.15 322.68 215.79 317.98 219.01 C 315.48 220.47 312.94 222.07 310.06 222.63 C 306.28 223.32 303.63 217.08 307.15 215.11 C 309.19 213.62 311.59 212.77 313.89 211.78 C 322.45 208.30 330.79 204.18 339.65 201.46 C 343.27 199.88 346.70 197.92 350.26 196.19 C 353.87 194.65 352.87 189.86 355.21 187.22 C 357.94 184.21 362.07 183.29 365.65 181.66 Z" />
</g>
<g id="#24693cff">
<path fill="#24693c" opacity="1.00" d=" M 300.38 179.50 C 307.49 178.21 315.98 179.40 320.74 185.38 C 323.27 187.92 323.94 191.51 325.36 194.66 C 328.24 197.27 332.29 198.12 335.34 200.55 C 333.63 201.30 331.99 202.29 330.16 202.66 C 327.66 201.89 325.35 200.65 322.99 199.54 C 318.47 201.59 313.31 203.10 308.42 201.29 C 302.98 199.02 298.34 194.79 295.52 189.62 C 293.78 185.55 296.04 180.58 300.38 179.50 M 300.23 189.87 C 302.63 195.23 308.33 199.08 314.27 198.77 C 315.52 199.37 316.17 198.19 316.74 197.41 C 313.88 197.01 310.81 197.27 308.19 195.85 C 305.24 194.28 302.94 191.80 300.23 189.87 Z" />
</g>
<g id="#26663bff">
<path fill="#26663b" opacity="1.00" d=" M 345.37 206.32 C 345.82 206.10 346.72 205.67 347.17 205.45 C 351.32 206.26 355.05 208.50 359.00 209.98 C 363.12 211.84 367.80 212.78 371.29 215.80 C 373.35 218.63 370.73 223.70 367.01 222.49 C 362.15 221.00 358.12 217.75 353.55 215.64 C 350.39 214.18 347.27 212.63 344.36 210.73 C 343.53 210.03 342.16 209.62 342.09 208.38 C 343.13 207.61 344.23 206.93 345.37 206.32 Z" />
</g>
<g id="#1e5833ff">
<path fill="#1e5833" opacity="1.00" d=" M 320.67 220.82 C 324.16 218.75 327.61 215.47 331.99 216.24 C 337.35 216.79 342.71 216.37 348.07 216.18 C 351.44 216.75 354.15 219.15 357.02 220.88 C 345.09 223.60 332.56 223.90 320.67 220.82 Z" />
</g>
</svg>
