<?xml version="1.0" encoding="UTF-8" ?>
<!DOCTYPE svg PUBLIC "-//W3C//DTD SVG 1.1//EN" "http://www.w3.org/Graphics/SVG/1.1/DTD/svg11.dtd">
<svg width="677pt" height="369pt" viewBox="0 0 677 369" version="1.1" xmlns="http://www.w3.org/2000/svg">
<g id="#266137ff">
<path fill="#266137" opacity="1.00" d=" M 435.53 117.07 C 435.05 112.19 438.06 107.16 442.89 105.85 C 442.62 106.33 442.08 107.31 441.82 107.79 C 441.45 109.23 441.08 110.67 440.69 112.11 C 441.85 118.86 449.03 123.61 447.63 130.88 C 447.27 134.36 443.94 136.15 441.60 138.23 C 442.64 134.73 443.56 130.56 441.56 127.20 C 439.48 123.88 436.42 121.01 435.53 117.07 Z" />
</g>
<g id="#2b613bfe">
<path fill="#2b613b" opacity="1.00" d=" M 448.41 114.86 C 449.16 113.78 449.91 112.70 450.64 111.60 C 448.81 117.39 456.04 120.41 454.81 126.05 C 455.11 128.99 452.20 130.23 450.18 131.59 C 454.30 125.94 446.78 120.80 448.41 114.86 Z" />
</g>
<g id="#28673bff">
<path fill="#28673b" opacity="1.00" d=" M 391.73 136.59 C 394.92 135.32 398.64 135.56 400.72 138.61 C 402.55 135.51 406.32 135.39 409.38 136.55 C 410.07 138.40 411.77 140.23 411.16 142.33 C 409.79 147.19 405.30 150.34 401.02 152.52 C 397.51 152.63 395.32 149.11 392.88 147.04 C 389.71 144.54 389.77 139.82 391.73 136.59 Z" />
</g>
<g id="#29673aff">
<path fill="#29673a" opacity="1.00" d=" M 420.59 148.71 C 431.97 139.75 449.34 139.16 460.94 148.07 C 467.45 153.82 468.26 163.77 465.18 171.48 C 462.56 176.66 457.68 180.19 452.85 183.15 C 444.81 187.34 436.36 190.75 428.78 195.77 C 429.39 195.70 430.60 195.57 431.20 195.50 C 427.86 197.62 424.46 199.84 422.07 203.06 C 420.32 205.42 418.13 207.38 415.75 209.10 C 412.80 204.08 414.40 197.83 417.14 193.09 C 420.01 187.17 426.02 183.93 431.22 180.35 C 436.04 177.57 440.69 174.48 445.26 171.30 C 449.43 168.39 452.77 163.71 452.32 158.41 C 452.73 158.68 453.55 159.23 453.96 159.51 C 454.74 164.56 453.50 169.54 452.27 174.40 C 462.72 170.54 464.23 154.08 455.37 147.79 C 451.49 145.72 447.50 143.21 442.93 143.40 C 445.00 147.59 447.07 151.81 449.74 155.65 C 446.53 153.34 443.35 155.77 440.83 157.82 C 439.72 156.67 438.60 155.53 437.49 154.38 C 434.37 153.80 431.16 154.86 429.91 157.98 C 428.24 162.20 434.42 164.74 433.31 169.02 C 431.79 173.36 426.08 174.03 422.26 172.73 C 419.06 171.98 416.96 169.19 415.76 166.32 C 413.90 160.14 415.91 153.11 420.59 148.71 Z" />
</g>
<g id="#3f793fff">
<path fill="#3f793f" opacity="1.00" d=" M 442.93 143.40 C 447.50 143.21 451.49 145.72 455.37 147.79 C 454.50 148.77 453.59 149.73 452.87 150.82 C 452.95 153.75 453.76 156.59 453.96 159.51 C 453.55 159.23 452.73 158.68 452.32 158.41 C 451.25 157.70 450.48 156.67 449.74 155.65 C 447.07 151.81 445.00 147.59 442.93 143.40 Z" />
</g>
<g id="#4b8742ff">
<path fill="#4b8742" opacity="1.00" d=" M 452.87 150.82 C 453.59 149.73 454.50 148.77 455.37 147.79 C 464.23 154.08 462.72 170.54 452.27 174.40 C 453.50 169.54 454.74 164.56 453.96 159.51 C 453.76 156.59 452.95 153.75 452.87 150.82 Z" />
</g>
<g id="#28673cff">
<path fill="#28673c" opacity="1.00" d=" M 226.34 158.64 C 234.68 155.66 244.30 155.80 252.29 159.75 C 254.84 161.51 258.80 163.24 258.49 166.93 C 259.10 171.07 255.26 175.52 250.97 174.79 C 247.26 174.39 244.76 170.69 241.01 170.33 C 237.91 170.15 234.43 169.78 231.81 171.81 C 224.18 175.67 223.75 187.04 228.98 193.06 C 234.69 198.41 244.61 197.25 249.59 191.46 C 253.46 190.62 256.21 193.64 258.28 196.44 C 259.42 199.43 258.36 202.89 255.83 204.81 C 243.61 213.27 224.62 211.88 215.10 199.96 C 209.90 193.98 208.97 185.35 210.25 177.80 C 211.61 169.06 218.36 161.96 226.34 158.64 Z" />
<path fill="#28673c" opacity="1.00" d=" M 285.51 156.74 C 294.67 155.51 304.33 158.59 310.89 165.14 C 313.83 168.89 316.82 173.00 317.34 177.89 C 317.88 183.16 318.03 188.71 316.11 193.74 C 313.62 198.74 310.20 203.58 305.13 206.23 C 294.20 212.38 279.37 211.51 269.73 203.28 C 259.46 194.29 258.21 177.26 266.74 166.70 C 271.36 161.05 278.27 157.51 285.51 156.74 M 279.54 174.46 C 276.55 178.76 276.26 184.14 277.82 189.02 C 279.35 191.19 280.52 193.95 283.13 195.04 C 287.54 197.01 293.15 197.11 297.17 194.20 C 301.99 190.34 302.56 183.56 301.12 177.95 C 299.23 173.12 294.08 169.79 288.92 169.79 C 285.39 170.17 281.88 171.74 279.54 174.46 Z" />
<path fill="#28673c" opacity="1.00" d=" M 328.63 157.71 C 332.81 156.54 338.85 156.40 341.20 160.85 C 345.55 168.47 349.31 176.42 353.94 183.88 C 357.17 176.10 361.80 168.97 365.50 161.40 C 367.60 156.87 373.36 156.58 377.63 157.42 C 380.31 157.99 382.10 160.57 382.38 163.18 C 382.77 168.13 383.64 173.05 383.45 178.04 C 383.86 187.10 385.50 196.15 385.18 205.24 C 382.97 211.02 374.73 210.91 370.72 207.16 C 368.81 199.07 369.58 190.66 369.25 182.43 C 368.95 182.54 368.33 182.78 368.03 182.90 C 365.17 188.96 362.09 194.93 358.42 200.54 C 355.82 202.88 352.01 202.11 348.97 201.21 C 346.63 197.25 343.96 193.47 342.19 189.20 C 341.15 186.70 339.73 184.39 338.02 182.30 C 337.03 190.22 337.73 198.25 336.70 206.17 C 336.67 206.41 336.62 206.88 336.60 207.12 C 332.90 210.75 325.44 210.99 322.70 206.15 C 321.94 195.57 323.85 185.02 323.82 174.43 C 325.05 168.88 322.68 161.10 328.63 157.71 Z" />
<path fill="#28673c" opacity="1.00" d=" M 464.77 191.41 C 465.13 191.45 465.86 191.52 466.22 191.56 C 468.52 196.79 467.84 203.44 463.48 207.40 C 457.17 207.24 450.72 206.58 444.57 208.38 C 439.16 207.59 433.82 206.04 428.27 206.39 C 431.51 205.34 434.91 204.97 438.30 204.93 C 438.13 204.33 437.96 203.72 437.79 203.13 C 439.05 201.07 439.70 198.76 439.82 196.36 C 443.11 195.96 446.38 195.36 449.64 194.72 C 454.78 195.19 461.42 196.56 464.77 191.41 Z" />
</g>
<g id="#27673bff">
<path fill="#27673b" opacity="1.00" d=" M 396.44 157.53 C 399.72 156.73 404.01 156.81 406.14 159.87 C 407.65 161.91 407.43 164.55 407.49 166.95 C 407.38 179.32 407.61 191.69 407.40 204.05 C 406.56 211.99 392.10 211.72 391.65 203.60 C 391.49 190.75 391.54 177.89 391.58 165.03 C 391.61 161.92 393.32 158.53 396.44 157.53 Z" />
</g>
<g id="#1a2f207e">
<path fill="#1a2f20" opacity="0.49" d=" M 338.02 182.30 C 339.73 184.39 341.15 186.70 342.19 189.20 C 341.13 187.76 340.17 186.14 338.62 185.17 C 338.21 191.88 338.25 198.64 337.66 205.32 L 336.70 206.17 C 337.73 198.25 337.03 190.22 338.02 182.30 Z" />
</g>
<g id="#185b31ff">
<path fill="#185b31" opacity="1.00" d=" M 431.20 195.50 C 437.02 193.36 443.57 194.07 449.64 194.72 C 446.38 195.36 443.11 195.96 439.82 196.36 C 439.70 198.76 439.05 201.07 437.79 203.13 C 437.96 203.72 438.13 204.33 438.30 204.93 C 434.91 204.97 431.51 205.34 428.27 206.39 C 424.00 207.10 420.21 210.89 415.75 209.10 C 418.13 207.38 420.32 205.42 422.07 203.06 C 424.46 199.84 427.86 197.62 431.20 195.50 Z" />
</g>
<g id="#164f2dff">
<path fill="#164f2d" opacity="1.00" d=" M 444.57 208.38 C 450.72 206.58 457.17 207.24 463.48 207.40 C 457.95 211.01 450.54 210.38 444.57 208.38 Z" />
</g>
</svg>
